<?xml version="1.0" standalone="no"?>
<!DOCTYPE svg PUBLIC "-//W3C//DTD SVG 20010904//EN"
 "http://www.w3.org/TR/2001/REC-SVG-20010904/DTD/svg10.dtd">
<svg version="1.0" xmlns="http://www.w3.org/2000/svg"
 width="650.000000pt" height="650.000000pt" viewBox="0 0 650.000000 650.000000"
 preserveAspectRatio="xMidYMid meet">
<metadata>
Created by potrace 1.11, written by Peter Selinger 2001-2013
</metadata>
<g transform="translate(0.000000,650.000000) scale(0.100000,-0.100000)"
fill="#000000" stroke="none">
<path d="M1389 6362 c-229 -117 -382 -314 -450 -580 -31 -122 -41 -271 -24
-372 3 -19 6 -42 6 -50 1 -8 7 -36 14 -62 8 -27 12 -48 10 -48 -2 0 4 -20 15
-45 11 -25 18 -45 16 -45 -7 0 55 -123 87 -175 18 -27 60 -87 94 -133 35 -46
63 -88 63 -92 0 -11 -268 125 -349 177 -70 45 -139 116 -221 226 -35 48 -67
84 -70 82 -4 -3 -4 -24 0 -47 5 -24 11 -56 13 -73 5 -28 19 -95 30 -141 22
-91 124 -341 159 -389 4 -5 35 -50 67 -100 33 -49 77 -110 98 -135 66 -79 207
-213 289 -275 43 -33 81 -63 82 -67 2 -5 8 -8 13 -8 4 0 39 -19 76 -43 37 -24
84 -51 103 -59 19 -9 55 -25 80 -36 98 -45 171 -65 308 -85 85 -13 436 -17
447 -5 3 3 -82 34 -188 71 -105 36 -210 74 -232 83 -22 10 -42 18 -45 18 -11
2 -206 101 -230 117 -14 9 -57 37 -96 63 -38 25 -113 80 -165 121 -101 82
-294 264 -286 271 3 3 31 -2 63 -11 33 -9 66 -18 74 -19 35 -7 76 -19 85 -27
6 -4 15 -8 20 -8 65 -7 318 -116 366 -157 8 -8 19 -14 24 -14 10 0 107 -72
152 -114 46 -41 73 -59 73 -47 0 23 -56 141 -96 201 -70 107 -115 154 -321
342 -28 26 -49 50 -45 52 11 7 431 -205 498 -252 69 -46 147 -119 193 -179 76
-100 80 -18 6 135 -44 93 -125 187 -223 263 -45 35 -88 69 -95 74 -6 6 -52 37
-102 69 -261 171 -413 326 -509 521 -84 170 -112 327 -87 485 24 146 54 225
130 340 37 57 43 64 110 143 63 74 56 83 -30 39z"/>
<path d="M1464 6167 c-90 -98 -145 -196 -171 -307 -2 -8 -6 -42 -9 -75 -3 -33
-7 -66 -9 -72 -3 -7 0 -13 4 -13 5 0 7 -9 4 -19 -5 -22 22 -173 37 -199 5 -10
19 -39 31 -65 33 -69 104 -153 177 -209 35 -26 67 -48 72 -48 5 0 -7 23 -25
51 -53 77 -137 261 -134 289 0 3 -4 17 -10 33 -6 15 -13 40 -17 55 -8 36 -10
244 -3 307 7 59 45 199 65 238 8 15 12 27 8 27 -4 0 -1 7 6 15 25 30 3 24 -26
-8z"/>
<path d="M3268 5735 c-2 -1 -34 -5 -73 -8 -75 -7 -134 -14 -175 -22 -14 -3
-40 -7 -58 -10 -29 -5 -178 -40 -207 -49 -5 -1 -37 -11 -70 -20 -33 -10 -64
-22 -69 -27 -6 -5 -16 -9 -24 -9 -27 0 -265 -114 -362 -174 -63 -39 -204 -139
-226 -160 -6 -6 -34 -31 -62 -55 -29 -24 -52 -49 -52 -55 0 -7 3 -7 8 -1 17
23 393 209 467 231 6 2 62 21 125 43 154 53 349 102 465 116 17 2 39 6 50 9
12 2 52 7 90 11 39 4 86 9 105 11 60 6 362 6 425 0 66 -7 133 -15 183 -21 85
-12 111 -17 262 -50 68 -14 253 -70 315 -95 11 -4 58 -22 104 -40 46 -18 127
-53 180 -78 139 -67 141 -67 111 -39 -73 68 -295 215 -390 259 -19 9 -69 32
-110 51 -132 60 -311 115 -485 147 -27 5 -68 12 -90 15 -22 2 -60 8 -85 11
-43 6 -347 13 -352 9z"/>
<path d="M5130 5563 c0 -10 13 -57 29 -104 43 -125 52 -182 52 -322 0 -150
-52 -313 -141 -443 -72 -103 -231 -239 -359 -304 -103 -52 -318 -121 -451
-144 -14 -3 -27 -5 -30 -6 -3 -2 -8 -2 -11 -2 -16 2 -280 -69 -329 -88 -168
-66 -262 -162 -366 -374 -27 -55 -66 -116 -88 -137 -32 -33 -45 -39 -80 -39
-54 0 -96 36 -121 103 -18 49 -26 223 -12 279 7 25 8 26 35 12 24 -12 45 -13
115 -5 20 2 3 19 -31 29 -66 20 -106 71 -128 167 -15 68 -54 144 -103 205 -22
27 -28 45 -11 35 31 -19 230 -24 230 -5 0 6 -9 10 -20 10 -26 0 -125 50 -210
105 -166 108 -227 130 -278 100 -28 -17 -32 -17 -83 0 -99 33 -228 22 -289
-25 -30 -22 -27 -26 25 -34 22 -4 65 -14 95 -23 30 -9 57 -17 60 -18 25 -4
107 -56 141 -88 57 -56 76 -104 72 -191 -3 -76 -4 -80 -21 -143 -13 -44 -72
-137 -106 -165 -12 -10 -17 -17 -12 -18 14 0 106 53 106 62 0 4 6 8 14 8 21 0
1 -90 -42 -184 -36 -79 -120 -236 -131 -246 -3 -3 -17 -25 -30 -50 -13 -25
-38 -72 -56 -105 -127 -239 -152 -454 -78 -654 22 -61 90 -179 124 -215 l27
-29 13 41 c7 23 15 42 19 42 10 0 40 -35 40 -47 0 -6 4 -13 8 -15 13 -5 90
-133 138 -229 55 -109 69 -147 99 -262 38 -143 29 -322 -19 -387 -10 -13 -9
-13 7 -1 9 7 39 54 65 102 26 49 49 89 52 89 6 0 140 -271 140 -284 0 -4 6
-22 14 -39 19 -42 42 -120 55 -182 19 -96 -1 -386 -29 -420 -5 -5 -9 -14 -10
-20 -3 -25 -15 -64 -31 -103 -25 -59 -10 -45 47 41 161 243 182 495 67 787
-28 71 -109 237 -167 343 -31 57 -36 73 -30 105 3 20 6 48 5 61 -1 20 1 21 14
11 8 -7 15 -16 15 -21 0 -9 126 -220 171 -286 16 -23 29 -44 29 -47 0 -6 63
-109 71 -116 18 -16 153 -310 178 -388 75 -229 93 -454 57 -702 -20 -132 -78
-357 -107 -412 -11 -22 -11 -28 0 -28 16 0 132 184 191 305 60 122 122 296
135 376 15 100 18 138 19 209 0 99 -8 170 -29 255 -18 74 -88 233 -127 288
-19 27 -19 30 -3 17 11 -8 26 -22 35 -30 132 -122 366 -232 585 -276 39 -7 81
-16 94 -18 63 -14 345 -26 333 -15 -4 4 -56 28 -117 54 -241 103 -432 213
-652 373 -59 43 -85 74 -45 54 34 -18 227 -12 304 9 62 17 184 75 168 80 -3 1
-36 2 -75 4 -94 3 -176 13 -230 30 -25 7 -45 11 -45 10 0 -4 -147 46 -205 70
-94 39 -235 109 -235 117 0 4 -3 7 -7 6 -8 -2 -73 30 -73 35 0 2 42 2 93 1 50
-2 122 3 160 10 37 7 67 11 67 8 0 -2 6 1 14 7 8 6 18 11 22 9 21 -6 292 97
282 107 -2 2 -43 5 -91 6 -48 1 -107 5 -130 9 -23 4 -62 10 -87 14 -120 15
-302 75 -445 147 -102 51 -184 107 -137 94 68 -19 194 -5 311 34 133 45 461
209 461 232 0 5 -25 12 -120 34 -3 1 -18 4 -35 8 -16 4 -40 10 -52 12 -55 12
-64 14 -71 19 -5 3 -19 7 -33 10 -37 7 -139 47 -189 74 -56 30 -74 47 -41 37
13 -4 29 -8 35 -10 6 -1 18 -5 26 -8 27 -11 167 -46 211 -53 85 -13 344 -5
370 12 4 2 24 6 45 10 35 5 176 46 214 61 8 4 17 7 20 7 30 6 231 97 285 129
11 6 43 25 70 41 107 64 236 168 352 285 75 75 68 89 -19 34 -21 -13 -39 -23
-42 -23 -2 0 -43 -18 -91 -40 -130 -61 -260 -109 -339 -126 -46 -10 -122 -25
-146 -28 -14 -3 -44 -7 -68 -11 -23 -4 -54 -9 -70 -11 -55 -9 -359 -12 -417
-4 -33 5 -82 11 -110 15 -65 8 -246 55 -262 68 -7 5 -13 6 -13 3 0 -4 -10 -1
-22 6 -13 7 -25 13 -28 13 -3 1 -18 7 -33 13 -24 10 -26 15 -17 31 10 20 11
20 58 0 93 -40 120 -49 217 -73 92 -22 157 -28 289 -27 116 1 139 2 216 16 19
3 49 8 65 11 17 3 48 10 70 16 22 6 42 12 45 13 160 38 348 121 505 223 217
140 373 301 520 537 26 42 46 78 43 80 -2 3 -54 -24 -114 -60 -139 -83 -225
-116 -344 -131 -19 -2 -51 -6 -70 -9 -19 -2 -75 -7 -125 -10 -49 -4 -98 -9
-109 -12 -38 -11 -9 22 50 55 61 35 154 96 188 122 172 136 302 334 363 555
25 90 28 116 27 255 0 172 -16 254 -74 373 -39 80 -44 88 -113 174 -65 82 -77
92 -77 66z m-668 -1534 c-6 -5 -73 -30 -92 -34 -3 -1 -22 -9 -44 -18 -21 -9
-43 -17 -48 -17 -18 0 -218 -99 -270 -134 -53 -35 -151 -123 -178 -160 -14
-18 -13 -19 5 -12 32 13 206 66 234 72 73 15 131 19 296 19 155 -1 263 -7 340
-20 11 -2 30 -4 43 -4 32 -1 27 -20 -8 -27 -16 -4 -35 -13 -41 -20 -6 -8 -21
-14 -33 -14 -12 0 -26 -4 -32 -9 -5 -4 -25 -14 -44 -21 -184 -66 -220 -78
-220 -74 0 2 -12 -1 -27 -7 -16 -6 -35 -12 -43 -14 -8 -2 -46 -10 -83 -19 -38
-9 -89 -18 -115 -21 -26 -3 -74 -9 -107 -14 -61 -9 -386 -12 -416 -4 -14 4
-10 20 26 112 23 59 55 127 70 152 32 51 129 147 171 169 16 8 31 18 34 21 5
6 111 47 140 55 43 10 147 31 160 32 140 8 245 15 247 16 7 5 41 0 35 -5z
m-892 -743 c87 -57 217 -119 360 -170 81 -29 107 -42 100 -50 -10 -10 -130
-20 -240 -20 -188 1 -270 18 -475 100 -105 42 -135 51 -135 38 0 -10 53 -98
96 -159 70 -99 155 -172 287 -249 49 -28 52 -42 11 -51 -10 -2 -35 -9 -54 -15
-62 -19 -113 -25 -210 -24 -83 1 -137 7 -145 16 -3 3 -49 102 -87 188 -14 30
-33 78 -43 105 -10 28 -22 54 -26 59 -17 20 104 151 166 181 19 8 73 27 122
41 48 13 106 38 128 54 36 26 42 27 60 14 11 -8 49 -34 85 -58z"/>
<path d="M5022 5316 c-6 -298 -132 -552 -372 -747 -30 -25 -68 -53 -83 -63
-16 -10 -27 -19 -25 -21 12 -12 186 47 248 84 136 82 257 253 293 416 28 123
8 298 -46 401 -12 23 -13 16 -15 -70z"/>
<path d="M600 4505 c0 -6 17 -47 57 -133 18 -41 33 -78 33 -82 0 -5 3 -10 8
-12 4 -1 18 -25 32 -53 81 -160 250 -363 425 -510 33 -27 62 -53 65 -56 3 -3
43 -32 90 -64 128 -88 292 -160 408 -179 17 -4 47 -9 65 -12 34 -6 83 -10 157
-13 37 -1 42 -3 27 -12 -24 -14 -181 -18 -272 -8 -64 7 -85 10 -165 23 -88 13
-140 17 -140 9 0 -12 143 -187 199 -244 100 -100 230 -185 335 -217 54 -16
230 -24 256 -12 8 4 49 15 90 25 107 25 114 33 29 32 -41 -1 -87 2 -104 6 -16
3 -43 9 -60 12 -54 11 -174 73 -250 131 -41 30 -75 57 -75 59 0 3 124 25 170
30 47 6 148 45 216 85 77 44 184 125 184 139 0 5 -62 9 -137 9 -190 1 -267 11
-408 57 -115 37 -295 128 -281 142 3 4 30 6 59 4 184 -7 346 0 437 20 28 6 57
12 63 13 29 5 88 28 83 33 -2 3 -67 6 -143 8 -76 2 -151 6 -168 9 -16 3 -43 8
-60 11 -52 9 -68 12 -130 30 -54 14 -124 37 -165 52 -8 3 -20 7 -26 8 -18 4
-254 121 -304 151 -181 107 -295 199 -434 347 -58 62 -114 124 -126 140 -19
24 -40 36 -40 22z"/>
<path d="M5530 4448 c0 -3 21 -50 46 -104 45 -96 60 -133 108 -279 61 -182
100 -361 121 -556 4 -30 8 -67 11 -84 5 -38 5 -325 -1 -385 -7 -75 -17 -164
-19 -180 -2 -8 -7 -40 -11 -70 -5 -30 -9 -57 -10 -60 -1 -3 -5 -23 -9 -45 -8
-43 -62 -240 -73 -265 -3 -8 -7 -22 -9 -30 -13 -64 -165 -392 -225 -485 -18
-27 -48 -75 -68 -105 -19 -30 -38 -56 -43 -58 -4 -2 -8 -8 -8 -14 0 -16 -150
-197 -249 -301 -101 -105 -214 -203 -326 -286 -38 -28 -74 -54 -80 -59 -45
-36 -372 -221 -391 -221 -2 0 -25 -9 -50 -21 -24 -12 -104 -44 -177 -71 -72
-26 -129 -48 -126 -49 6 0 98 17 139 26 14 3 36 7 50 10 34 7 201 53 220 61 8
3 20 7 26 8 6 2 27 10 45 18 19 8 59 25 89 37 84 33 253 124 349 187 255 166
513 418 679 665 222 330 364 712 409 1103 14 114 7 518 -10 600 -3 11 -8 43
-12 70 -5 28 -9 52 -10 55 -1 3 -5 25 -9 49 -27 147 -108 373 -197 552 -65
128 -179 312 -179 287z"/>
<path d="M909 3433 c0 -10 -2 -27 -5 -38 -3 -19 -6 -37 -24 -170 -8 -65 -5
-418 4 -475 3 -19 9 -53 12 -75 12 -86 16 -103 39 -200 58 -244 177 -531 287
-692 15 -23 28 -46 28 -51 0 -6 3 -12 8 -14 4 -1 19 -21 33 -43 14 -22 49 -69
77 -105 229 -289 499 -512 808 -669 107 -54 286 -131 305 -131 4 0 20 -5 36
-12 15 -6 33 -12 38 -14 177 -47 243 -63 300 -70 22 -3 56 -7 75 -10 108 -15
210 -20 332 -18 131 2 244 12 235 20 -2 2 -37 6 -78 9 -60 4 -155 15 -259 30
-405 56 -889 265 -1224 528 -394 310 -696 732 -861 1207 -35 100 -83 269 -90
317 -2 15 -7 42 -10 58 -18 97 -25 135 -30 175 -12 96 -19 220 -20 337 0 68
-3 123 -7 123 -5 0 -8 -8 -9 -17z"/>
</g>
</svg>
